NDIME= 2
NELEM= 890
5 326 325 536 0
5 27 325 326 1
5 325 35 530 2
5 193 494 549 3
5 184 549 565 4
5 322 14 326 5
5 322 326 536 6
5 466 322 536 7
5 550 543 551 8
5 480 497 534 9
5 309 320 436 10
5 549 548 550 11
5 268 286 287 12
5 550 558 560 13
5 316 342 347 14
5 328 320 423 15
5 90 327 338 16
5 270 242 305 17
5 551 546 555 18
5 187 193 184 19
5 315 98 316 20
5 486 545 546 21
5 493 506 536 22
5 550 554 558 23
5 540 486 546 24
5 269 243 285 25
5 242 268 305 26
5 236 267 494 27
5 159 501 529 28
5 291 147 475 29
5 128 290 392 30
5 417 132 419 31
5 312 314 320 32
5 139 402 406 33
5 401 135 405 34
5 491 503 508 35
5 432 455 462 36
5 328 403 415 37
5 438 451 477 38
5 309 306 312 39
5 283 87 383 40
5 398 328 415 41
5 455 460 462 42
5 400 352 413 43
5 302 300 304 44
5 543 539 546 45
5 285 302 304 46
5 267 304 308 47
5 390 409 420 48
5 320 328 429 49
5 105 244 340 50
5 317 235 322 51
5 487 457 513 52
5 471 65 474 53
5 268 242 288 54
5 285 243 302 55
5 51 473 481 56
5 310 282 312 57
5 452 432 462 58
5 361 367 376 59
5 218 242 270 60
5 306 309 468 61
5 474 67 523 62
5 424 415 434 63
5 514 43 520 64
5 389 407 440 65
5 535 537 539 66
5 368 361 376 67
5 248 235 317 68
5 549 550 553 69
5 433 452 462 70
5 528 529 538 71
5 425 438 450 72
5 457 475 513 73
5 304 306 308 74
5 430 411 435 75
5 309 436 449 76
5 393 390 410 77
5 454 434 482 78
5 477 487 498 79
5 267 252 298 80
5 287 286 300 81
5 450 438 477 82
5 190 191 193 83
5 466 521 526 84
5 490 507 513 85
5 535 539 543 86
5 307 310 312 87
5 546 545 555 88
5 337 319 354 89
5 384 371 390 90
5 288 275 301 91
5 334 467 482 92
5 216 243 269 93
5 244 349 351 94
5 473 472 506 95
5 394 408 412 96
5 293 556 558 97
5 433 430 435 98
5 545 547 555 99
5 242 275 288 100
5 449 436 463 101
5 267 298 304 102
5 268 287 305 103
5 416 405 421 104
5 282 317 448 105
5 472 284 524 106
5 361 353 364 107
5 453 462 484 108
5 489 478 492 109
5 343 344 350 110
5 509 322 515 111
5 413 389 422 112
5 379 375 391 113
5 503 292 518 114
5 391 398 415 115
5 556 552 560 116
5 437 291 451 117
5 408 396 412 118
5 346 359 363 119
5 243 217 270 120
5 323 481 500 121
5 547 293 551 122
5 537 528 538 123
5 352 389 413 124
5 352 374 389 125
5 317 322 448 126
5 502 487 507 127
5 307 286 310 128
5 479 153 491 129
5 557 175 559 130
5 345 357 368 131
5 358 345 368 132
5 426 144 437 133
5 486 540 544 134
5 243 287 302 135
5 441 424 454 136
5 311 319 331 137
5 364 299 367 138
5 237 252 267 139
5 267 308 494 140
5 349 346 356 141
5 236 237 267 142
5 354 355 366 143
5 459 485 499 144
5 507 517 542 145
5 444 450 455 146
5 290 417 435 147
5 324 514 530 148
5 315 316 347 149
5 514 520 530 150
5 284 511 532 151
5 252 274 298 152
5 561 553 562 153
5 255 248 268 154
5 417 419 439 155
5 507 487 513 156
5 458 469 497 157
5 415 424 443 158
5 410 390 420 159
5 381 392 409 160
5 385 381 409 161
5 374 378 386 162
5 216 217 243 163
5 333 331 337 164
5 434 447 459 165
5 257 294 301 166
5 397 352 400 167
5 418 408 424 168
5 289 449 480 169
5 334 489 492 170
5 482 434 489 171
5 537 516 542 172
5 251 269 303 173
5 407 431 440 174
5 407 386 427 175
5 329 448 509 176
5 250 271 294 177
5 275 257 301 178
5 541 535 548 179
5 372 299 384 180
5 453 445 462 181
5 458 453 476 182
5 533 516 535 183
5 367 372 387 184
5 502 507 542 185
5 257 250 294 186
5 534 533 541 187
5 379 391 443 188
5 306 300 307 189
5 548 543 550 190
5 234 248 255 191
5 457 291 475 192
5 550 551 554 193
5 549 553 566 194
5 498 487 502 195
5 539 538 540 196
5 543 546 551 197
5 422 389 440 198
5 337 360 370 199
5 451 457 487 200
5 316 330 342 201
5 372 393 410 202
5 507 490 508 203
5 502 516 525 204
5 251 215 269 205
5 300 286 307 206
5 271 276 297 207
5 505 474 523 208
5 458 476 525 209
5 446 431 453 210
5 271 250 276 211
5 295 247 296 212
5 449 463 497 213
5 515 466 526 214
5 261 272 297 215
5 104 105 340 216
5 253 295 296 217
5 460 477 498 218
5 84 85 412 219
5 272 249 281 220
5 336 395 441 221
5 408 394 443 222
5 420 409 430 223
5 261 249 272 224
5 203 199 200 225
5 215 216 269 226
5 256 254 266 227
5 446 458 463 228
5 254 256 281 229
5 510 515 526 230
5 287 300 302 231
5 276 261 297 232
5 497 469 534 233
5 273 255 288 234
5 289 308 468 235
5 500 493 536 236
5 431 427 445 237
5 233 255 273 238
5 217 218 270 239
5 249 254 281 240
5 433 435 452 241
5 234 235 248 242
5 541 548 549 243
5 508 503 517 244
5 274 251 303 245
5 375 373 391 246
5 310 313 318 247
5 547 551 555 248
5 462 460 484 249
5 335 504 523 250
5 277 253 296 251
5 243 270 287 252
5 338 327 370 253
5 447 464 485 254
5 527 520 531 255
5 253 274 295 256
5 499 510 522 257
5 253 251 274 258
5 283 394 412 259
5 426 437 451 260
5 529 501 538 261
5 392 290 411 262
5 233 234 255 263
5 347 342 355 264
5 274 252 295 265
5 406 402 425 266
5 320 429 436 267
5 423 314 464 268
5 401 405 416 269
5 254 249 262 270
5 404 382 413 271
5 254 207 266 272
5 461 454 467 273
5 365 376 386 274
5 336 441 461 275
5 273 288 301 276
5 356 346 363 277
5 268 248 313 278
5 97 98 315 279
5 214 251 253 280
5 442 329 464 281
5 207 0 266 282
5 459 499 522 283
5 378 365 386 284
5 103 104 332 285
5 214 215 251 286
5 220 257 275 287
5 370 375 377 288
5 223 261 276 289
5 246 233 273 290
5 264 258 279 291
5 479 491 508 292
5 537 538 539 293
5 528 518 529 294
5 249 226 262 295
5 152 153 479 296
5 147 148 475 297
5 143 144 426 298
5 153 154 491 299
5 138 139 406 300
5 158 159 529 301
5 127 128 392 302
5 135 136 405 303
5 175 176 559 304
5 451 291 457 305
5 144 145 437 306
5 132 133 419 307
5 0 227 266 308
5 211 258 264 309
5 260 259 265 310
5 340 244 341 311
5 477 451 487 312
5 271 263 294 313
5 259 260 279 314
5 221 250 257 315
5 242 219 275 316
5 250 222 276 317
5 245 280 297 318
5 224 249 261 319
5 226 3 262 320
5 174 175 557 321
5 213 253 277 322
5 260 264 279 323
5 205 254 262 324
5 398 382 404 325
5 2 211 264 326
5 246 273 294 327
5 227 256 266 328
5 554 293 558 329
5 3 205 262 330
5 258 277 296 331
5 287 270 305 332
5 208 260 265 333
5 511 519 521 334
5 218 219 242 335
5 220 221 257 336
5 221 222 250 337
5 219 220 275 338
5 222 223 276 339
5 210 2 264 340
5 223 224 261 341
5 224 225 249 342
5 225 226 249 343
5 258 212 277 344
5 260 210 264 345
5 272 245 297 346
5 100 101 330 347
5 1 208 265 348
5 278 279 296 349
5 504 512 522 350
5 213 214 253 351
5 282 310 318 352
5 241 1 265 353
5 212 213 277 354
5 256 245 281 355
5 83 84 396 356
5 211 212 258 357
5 206 207 254 358
5 205 206 254 359
5 263 246 294 360
5 403 423 447 361
5 237 247 252 362
5 435 439 452 363
5 259 241 265 364
5 279 258 296 365
5 294 273 301 366
5 209 210 260 367
5 208 209 260 368
5 239 259 278 369
5 247 239 278 370
5 245 272 281 371
5 252 247 295 372
5 240 241 259 373
5 239 240 259 374
5 238 239 247 375
5 237 238 247 376
5 415 403 434 377
5 245 230 280 378
5 230 263 280 379
5 280 271 297 380
5 498 502 525 381
5 332 340 343 382
5 247 278 296 383
5 456 479 490 384
5 483 456 490 385
5 232 233 246 386
5 231 232 246 387
5 229 230 245 388
5 228 229 245 389
5 230 231 263 390
5 263 271 280 391
5 227 228 256 392
5 414 426 438 393
5 278 259 279 394
5 348 358 362 395
5 428 414 438 396
5 359 348 362 397
5 285 298 303 398
5 231 246 263 399
5 520 45 531 400
5 228 245 256 401
5 377 379 394 402
5 269 285 303 403
5 505 504 510 404
5 70 71 335 405
5 551 293 554 406
5 255 268 288 407
5 492 478 495 408
5 442 282 448 409
5 248 317 318 410
5 421 444 455 411
5 329 442 448 412
5 45 46 531 413
5 435 417 439 414
5 418 424 441 415
5 564 563 565 416
5 395 399 418 417
5 351 356 369 418
5 74 75 334 419
5 392 411 430 420
5 308 306 468 421
5 384 390 393 422
5 391 415 443 423
5 521 466 532 424
5 561 565 566 425
5 335 496 504 426
5 436 440 446 427
5 463 458 497 428
5 360 373 375 429
5 310 286 313 430
5 511 62 519 431
5 376 367 387 432
5 72 73 495 433
5 308 289 494 434
5 466 506 524 435
5 62 63 519 436
5 323 500 531 437
5 332 104 340 438
5 407 427 431 439
5 355 397 400 440
5 436 422 440 441
5 521 488 526 442
5 440 431 446 443
5 467 454 482 444
5 411 290 435 445
5 424 408 443 446
5 517 503 528 447
5 350 344 352 448
5 377 283 383 449
5 464 329 485 450
5 416 421 432 451
5 372 384 393 452
5 420 433 445 453
5 122 123 384 454
5 434 403 447 455
5 525 516 533 456
5 357 361 368 457
5 387 372 410 458
5 504 478 512 459
5 488 505 526 460
5 178 179 563 461
5 485 329 499 462
5 321 103 332 463
5 367 299 372 464
5 420 430 433 465
5 370 360 375 466
5 386 376 387 467
5 409 392 430 468
5 391 373 398 469
5 283 377 394 470
5 438 426 451 471
5 425 402 428 472
5 298 274 303 473
5 503 518 528 474
5 401 416 419 475
5 359 362 363 476
5 553 560 562 477
5 105 106 244 478
5 106 107 244 479
5 317 282 318 480
5 396 84 412 481
5 342 350 355 482
5 535 543 548 483
5 101 321 330 484
5 351 349 356 485
5 484 460 498 486
5 374 369 378 487
5 455 450 460 488
5 478 489 512 489
5 446 453 458 490
5 311 97 315 491
5 459 447 485 492
5 337 354 360 493
5 366 355 400 494
5 403 328 423 495
5 404 413 422 496
5 460 450 477 497
5 490 479 508 498
5 518 158 529 499
5 154 292 491 500
5 456 152 479 501
5 148 465 475 502
5 465 150 483 503
5 150 456 483 504
5 125 381 385 505
5 145 291 437 506
5 115 353 357 507
5 141 414 428 508
5 381 127 392 509
5 414 143 426 510
5 176 470 559 511
5 113 345 358 512
5 345 115 357 513
5 371 125 385 514
5 111 348 359 515
5 348 113 358 516
5 346 111 359 517
5 362 358 368 518
5 402 141 428 519
5 517 528 537 520
5 133 401 419 521
5 388 138 406 522
5 136 388 405 523
5 298 285 304 524
5 432 421 455 525
5 476 498 525 526
5 306 307 312 527
5 389 386 407 528
5 176 177 470 529
5 171 172 556 530
5 339 332 343 531
5 419 416 439 532
5 558 556 560 533
5 510 499 515 534
5 101 102 321 535
5 102 103 321 536
5 334 482 489 537
5 377 375 379 538
5 540 538 544 539
5 406 425 444 540
5 361 364 367 541
5 552 174 557 542
5 363 365 378 543
5 340 341 343 544
5 395 418 441 545
5 344 351 369 546
5 395 81 399 547
5 421 406 444 548
5 81 380 399 549
5 390 385 409 550
5 369 363 378 551
5 431 445 453 552
5 553 561 566 553
5 380 83 396 554
5 286 268 313 555
5 170 171 556 556
5 441 454 461 557
5 98 99 316 558
5 99 100 316 559
5 330 339 342 560
5 319 315 347 561
5 516 502 542 562
5 360 366 373 563
5 510 504 522 564
5 561 564 565 565
5 344 341 351 566
5 335 71 496 567
5 373 382 398 568
5 374 386 389 569
5 121 122 384 570
5 108 109 349 571
5 107 108 349 572
5 341 244 351 573
5 95 96 311 574
5 96 97 311 575
5 382 366 400 576
5 157 158 518 577
5 156 157 518 578
5 154 155 292 579
5 145 146 291 580
5 146 147 291 581
5 155 156 292 582
5 168 169 293 583
5 169 170 293 584
5 129 130 290 585
5 120 121 299 586
5 128 129 290 587
5 119 120 299 588
5 167 168 547 589
5 166 167 547 590
5 161 162 544 591
5 159 160 501 592
5 160 161 501 593
5 164 165 545 594
5 165 166 545 595
5 163 164 486 596
5 162 163 486 597
5 148 149 465 598
5 149 150 465 599
5 150 151 456 600
5 151 152 456 601
5 115 116 353 602
5 116 117 353 603
5 125 126 381 604
5 126 127 381 605
5 114 115 345 606
5 113 114 345 607
5 111 112 348 608
5 112 113 348 609
5 110 111 346 610
5 109 110 346 611
5 142 143 414 612
5 141 142 414 613
5 118 119 364 614
5 117 118 364 615
5 123 124 371 616
5 124 125 371 617
5 177 178 470 618
5 134 135 401 619
5 133 134 401 620
5 139 140 402 621
5 140 141 402 622
5 309 449 468 623
5 130 131 417 624
5 131 132 417 625
5 136 137 388 626
5 137 138 388 627
5 447 423 464 628
5 511 521 532 629
5 173 174 552 630
5 172 173 552 631
5 517 537 542 632
5 469 533 534 633
5 439 432 452 634
5 506 472 524 635
5 352 369 374 636
5 470 178 564 637
5 520 527 530 638
5 321 332 339 639
5 314 442 464 640
5 427 420 445 641
5 78 79 336 642
5 365 368 376 643
5 85 283 412 644
5 557 559 562 645
5 77 78 336 646
5 343 341 344 647
5 79 80 395 648
5 80 81 395 649
5 429 422 436 650
5 81 82 380 651
5 82 83 380 652
5 69 70 335 653
5 481 473 493 654
5 373 366 382 655
5 94 95 331 656
5 93 94 331 657
5 527 500 536 658
5 491 292 503 659
5 475 465 513 660
5 465 483 513 661
5 356 363 369 662
5 524 284 532 663
5 388 406 421 664
5 330 321 339 665
5 405 388 421 666
5 360 354 366 667
5 371 385 390 668
5 328 404 429 669
5 73 492 495 670
5 466 524 532 671
5 404 422 429 672
5 319 347 354 673
5 328 398 404 674
5 342 339 350 675
5 552 557 560 676
5 339 343 350 677
5 399 408 418 678
5 382 400 413 679
5 71 495 496 680
5 68 69 523 681
5 73 334 492 682
5 352 344 369 683
5 91 92 333 684
5 92 93 333 685
5 365 362 368 686
5 370 377 383 687
5 399 380 408 688
5 363 362 365 689
5 76 77 461 690
5 380 396 408 691
5 538 501 544 692
5 90 91 327 693
5 311 315 319 694
5 73 74 334 695
5 416 432 439 696
5 178 563 564 697
5 75 76 467 698
5 559 470 561 699
5 481 493 500 700
5 87 88 383 701
5 449 289 468 702
5 58 59 284 703
5 350 352 397 704
5 500 527 531 705
5 71 72 495 706
5 57 58 284 707
5 179 180 563 708
5 496 478 504 709
5 493 473 506 710
5 313 248 318 711
5 46 323 531 712
5 519 488 521 713
5 499 329 509 714
5 561 470 564 715
5 327 333 337 716
5 67 68 523 717
5 88 89 338 718
5 89 90 338 719
5 65 66 474 720
5 63 64 471 721
5 471 474 488 722
5 55 56 472 723
5 289 480 494 724
5 52 53 473 725
5 357 353 361 726
5 46 47 323 727
5 63 471 519 728
5 512 459 522 729
5 54 55 472 730
5 49 50 481 731
5 51 52 473 732
5 38 39 324 733
5 47 48 323 734
5 488 474 505 735
5 505 510 526 736
5 444 425 450 737
5 50 51 481 738
5 483 490 513 739
5 64 65 471 740
5 39 40 324 741
5 30 31 325 742
5 43 44 520 743
5 41 42 514 744
5 499 509 515 745
5 76 461 467 746
5 31 32 325 747
5 44 45 520 748
5 42 43 514 749
5 23 24 326 750
5 495 478 496 751
5 394 379 443 752
5 560 557 562 753
5 22 23 326 754
5 60 61 511 755
5 501 161 544 756
5 85 86 283 757
5 86 87 283 758
5 61 62 511 759
5 77 336 461 760
5 530 527 536 761
5 387 410 427 762
5 355 350 397 763
5 476 484 498 764
5 471 488 519 765
5 338 370 383 766
5 410 420 427 767
5 469 525 533 768
5 327 91 333 769
5 66 67 474 770
5 88 338 383 771
5 195 199 193 772
5 202 203 200 773
5 190 187 188 774
5 190 193 187 775
5 199 195 197 776
5 5 235 4 777
5 235 7 322 778
5 15 16 326 779
5 17 18 326 780
5 18 19 326 781
5 20 21 326 782
5 28 29 325 783
5 33 34 325 784
5 36 37 324 785
5 244 107 349 786
5 299 121 384 787
5 290 130 417 788
5 486 164 545 789
5 293 170 556 790
5 182 183 565 791
5 185 187 184 792
5 187 185 186 793
5 190 188 189 794
5 191 192 193 795
5 194 195 193 796
5 197 195 196 797
5 199 197 198 798
5 201 202 200 799
5 504 505 523 800
5 5 6 235 801
5 6 7 235 802
5 7 8 322 803
5 8 9 322 804
5 9 10 322 805
5 10 11 322 806
5 11 12 322 807
5 12 13 322 808
5 13 14 322 809
5 14 15 326 810
5 16 17 326 811
5 19 20 326 812
5 21 22 326 813
5 24 25 326 814
5 25 26 326 815
5 26 27 326 816
5 27 28 325 817
5 29 30 325 818
5 32 33 325 819
5 34 35 325 820
5 35 36 324 821
5 35 324 530 822
5 37 38 324 823
5 40 41 324 824
5 324 41 514 825
5 48 49 323 826
5 323 49 481 827
5 53 54 472 828
5 53 472 473 829
5 56 57 284 830
5 56 284 472 831
5 59 60 511 832
5 284 59 511 833
5 69 335 523 834
5 334 75 467 835
5 336 79 395 836
5 93 331 333 837
5 95 311 331 838
5 316 100 330 839
5 109 346 349 840
5 353 117 364 841
5 119 299 364 842
5 123 371 384 843
5 292 156 518 844
5 162 486 544 845
5 545 166 547 846
5 168 293 547 847
5 172 552 556 848
5 180 181 563 849
5 181 182 565 850
5 563 181 565 851
5 183 184 565 852
5 184 193 549 853
5 193 199 494 854
5 199 203 494 855
5 203 204 494 856
5 204 236 494 857
5 312 282 442 858
5 304 300 306 859
5 309 312 320 860
5 314 312 442 861
5 320 314 423 862
5 331 319 337 863
5 448 322 509 864
5 322 466 515 865
5 325 530 536 866
5 327 337 370 867
5 354 347 355 868
5 386 387 427 869
5 424 434 454 870
5 425 428 438 871
5 445 433 462 872
5 434 459 512 873
5 489 434 512 874
5 436 446 463 875
5 480 449 497 876
5 476 453 484 877
5 469 458 525 878
5 506 466 536 879
5 494 480 549 880
5 480 534 549 881
5 507 508 517 882
5 535 516 537 883
5 533 535 541 884
5 534 541 549 885
5 539 540 546 886
5 565 549 566 887
5 553 550 560 888
5 559 561 562 889
NPOIN= 567
-46.94 0 0
37.3098 0 1
37.3098 19.56 2
-46.94 19.56 3
0 0 4
0.0001058081338872203 0.03087395068113478 5
0.0004132091571724026 0.06174654714561484 6
0.0009228494116295682 0.09261643469146563 7
0.001624911730277725 0.1234825784978717 8
0.00254699302171757 0.154342935479474 9
0.003662306433856738 0.1851968769372321 10
0.00497796290482054 0.2160429589363412 11
0.00650632899480451 0.2468792151896502 12
0.00822688658117942 0.2777053385697722 13
0.0101564953454882 0.3085191066818254 14
0.01228967759482224 0.3393194201763193 15
0.01461481790161118 0.3701058641661928 16
0.01715761399469301 0.4008751022290519 17
0.01989479126657247 0.4316276216389858 18
0.02282986836639396 0.4623619196472119 19
0.02597859608493007 0.4930750496464222 20
0.02931871525252652 0.5237679420059774 21
0.03286519761788725 0.5544377015693462 22
0.03661601238773508 0.5850831136044919 23
0.04055778873789434 0.615704568844113 24
0.04471427037193518 0.6462976308935832 25
0.04906572854352038 0.6768635332691887 26
0.0536121127243858 0.7074010867683207 27
0.0583724794429961 0.73790600460226 28
0.06332290666441424 0.7683806361661843 29
0.06847645888860231 0.7988216050750127 30
0.07383451535058737 0.8292272173588223 31
0.07938200720948874 0.8595988520110628 32
0.08514068433477832 0.8899311679677701 33
0.09109436837815577 0.9202257753118472 34
0.09723949187741238 0.9504821676513234 35
0.1035983102155275 0.9806943641990606 36
0.11014533090306 1.010866309855897 37
0.1168917067425098 1.040994338461476 38
0.1238421614992741 1.071075917010931 39
0.1309799999967659 1.101113591343883 40
0.1383249535371533 1.131101311924338 41
0.1458643697524586 1.161040697811605 42
0.1535912453340499 1.190932289565042 43
0.161530899690611 1.220768066610862 44
0.1696563761902121 1.250553739794711 45
0.177976926281496 1.280285543523904 46
0.186500524486526 1.309959752017641 47
0.1952089349943166 1.339580251495867 48
0.2041198608531188 1.369140480000547 49
0.213224122560758 1.398641702078205 50
0.2225121168971612 1.428085630281398 51
0.2320098858259829 1.45746256435345 52
0.2416913076642952 1.486779448602904 53
0.2515630310773003 1.516032838185209 54
0.2616361597756468 1.545217468829486 55
0.2718910166897927 1.574338734642175 56
0.2823432818773639 1.603389756110339 57
0.292987167279955 1.632371085872502 58
0.3038115139601673 1.661285527768032 59
0.3148401771385254 1.690122663794055 60
0.3260507233837666 1.718889541346637 61
0.3374463312040718 1.747583650013468 62
0.3490410847461862 1.776197851281855 63
0.3608139783229208 1.804739207669261 64
0.372778689050736 1.83320071476704 65
0.3865390985657717 1.860805376251467 66
0.4044337514022585 1.885925483189748 67
0.4260474496434974 1.907927421884277 68
0.4508449993112026 1.926266392337073 69
0.478212370224913 1.940488295459697 70
0.5074719002401836 1.950240977058518 71
0.5378990750711784 1.955282947543226 72
0.5687404682125753 1.955489361452466 73
0.5992323967510332 1.950855108739594 74
0.6286198311307228 1.94149494127661 75
0.6561750906494869 1.927640631444604 76
0.6821208661114114 1.91090809978094 77
0.7080141401690966 1.894092810995135 78
0.7339074142267816 1.87727752220933 79
0.7598006882844671 1.860462233423525 80
0.7856939623421522 1.84364694463772 81
0.8115872363998372 1.826831655851915 82
0.8374805104575219 1.810016367066111 83
0.8633737845152066 1.793201078280306 84
0.8892670585728921 1.776385789494501 85
0.9151603326305772 1.759570500708696 86
0.9410536066882622 1.742755211922892 87
0.9669468807459473 1.725939923137087 88
0.9928401548036323 1.709124634351282 89
1.018733428861317 1.692309345565477 90
1.044626702919002 1.675494056779673 91
1.070519976976687 1.658678767993868 92
1.096413251034371 1.641863479208064 93
1.122306525092056 1.625048190422259 94
1.148199799149741 1.608232901636454 95
1.174093073207426 1.591417612850649 96
1.199986347265111 1.574602324064845 97
1.225879621322796 1.55778703527904 98
1.251772895380481 1.540971746493235 99
1.277666169438166 1.524156457707431 100
1.30355944349585 1.507341168921626 101
1.329452717553536 1.490525880135821 102
1.35534599161122 1.473710591350017 103
1.381239265668905 1.456895302564212 104
1.407132539726589 1.440080013778408 105
1.433025813784274 1.423264724992603 106
1.458919087841959 1.406449436206798 107
1.484812361899644 1.389634147420994 108
1.510705635957329 1.372818858635189 109
1.536598910015014 1.356003569849384 110
1.5624921840727 1.339188281063579 111
1.588385458130385 1.322372992277774 112
1.614278732188071 1.305557703491969 113
1.640172006245756 1.288742414706164 114
1.666065280303441 1.271927125920359 115
1.691958554361126 1.255111837134555 116
1.71785182841881 1.23829654834875 117
1.743745102476495 1.221481259562946 118
1.76963837653418 1.204665970777141 119
1.795531650591865 1.187850681991336 120
1.821424924649549 1.171035393205532 121
1.847318198707234 1.154220104419727 122
1.873211472764919 1.137404815633922 123
1.899104746822605 1.120589526848117 124
1.92499802088029 1.103774238062312 125
1.950891294937975 1.086958949276507 126
1.97678456899566 1.070143660490703 127
2.002677843053345 1.053328371704898 128
2.02857111711103 1.036513082919094 129
2.054464391168715 1.019697794133289 130
2.080357665226399 1.002882505347484 131
2.106250939284084 0.9860672165616801 132
2.132144213341768 0.9692519277758758 133
2.158037487399453 0.9524366389900708 134
2.183930761457138 0.9356213502042657 135
2.209824035514824 0.9188060614184608 136
2.23571730957251 0.9019907726326557 137
2.261610583630195 0.8851754838468506 138
2.28750385768788 0.8683601950610454 139
2.313397131745566 0.8515449062752404 140
2.339290405803252 0.8347296174894353 141
2.365183679860936 0.8179143287036303 142
2.391076953918622 0.8010990399178253 143
2.416970227976309 0.7842837511320198 144
2.442863502033994 0.7674684623462147 145
2.468756776091679 0.7506531735604097 146
2.494650050149365 0.7338378847746047 147
2.52054332420705 0.7170225959887996 148
2.546436598264735 0.7002073072029946 149
2.572329872322421 0.6833920184171896 150
2.598223146380107 0.6665767296313845 151
2.624116420437792 0.6497614408455795 152
2.650009694495478 0.6329461520597742 153
2.675902968553163 0.6161308632739692 154
2.701796242610849 0.5993155744881636 155
2.727689516668535 0.5825002857023587 156
2.75358279072622 0.5656849969165536 157
2.779476064783906 0.5488697081307485 158
2.805369338841591 0.5320544193449436 159
2.831262612899276 0.5152391305591385 160
2.857155886956962 0.4984238417733335 161
2.883049161014648 0.4816085529875284 162
2.908942435072333 0.4647932642017234 163
2.934835709130018 0.4479779754159184 164
2.960728983187704 0.4311626866301133 165
2.98662225724539 0.4143473978443078 166
3.012515531303075 0.3975321090585026 167
3.038408805360761 0.3807168202726975 168
3.064302079418446 0.3639015314868925 169
3.090195353476132 0.3470862427010875 170
3.116088627533817 0.3302709539152824 171
3.141981901591503 0.3134556651294774 172
3.167875175649188 0.2966403763436724 173
3.193768449706874 0.2798250875578673 174
3.219661723764559 0.2630097987720623 175
3.245554997822245 0.2461945099862572 176
3.27144827187993 0.2293792212004517 177
3.297163774789752 0.2123004161408723 178
3.320857690284517 0.192542240117566 179
3.341707852303534 0.1698033048112892 180
3.359340693631918 0.1444878799771057 181
3.373445051370817 0.1170496402909521 182
3.383764096935328 0.08797547677599887 183
3.39012105196371 0.05778637500618673 184
3.391022376832612 0.02696654351014762 185
3.391083718688272 0.005175177956987373 186
3.391182056206486 0.03604921086668185 187
3.391254818689193 0.03051574779833667 188
3.391314380093091 0.006189809405004557 189
3.391412717611305 0.03706384231469908 190
3.391480846624647 0.02493437599661738 191
3.391551458512985 0.01633942134867413 192
3.391645493096134 0.04108798510465832 193
3.391700454609284 0.01021384450757481 194
3.391794959661159 0.03563214685422831 195
3.391858675733375 0.01722061159375897 196
3.39194655109922 0.0332011844254075 197
3.392010466747128 0.01507375634403156 198
3.39210086200856 0.03464154173054099 199
3.392170697030884 0.02494067478401561 200
3.392243258513035 0.01912107616117782 201
3.392322261779695 0.02247171871204172 202
3.392401263139511 0.02581964676207545 203
3.392401263139511 0 204
-46.94 14.67000000000989 205
-46.94 9.780000000025327 206
-46.94 4.890000000012318 207
37.3098 4.889999999988095 208
37.3098 9.779999999974251 209
37.3098 14.66999999998747 210
32.35392941177727 19.56 211
27.39805882355035 19.56 212
22.44218823532905 19.56 213
17.4863176471091 19.56 214
12.53044705888915 19.56 215
7.574576470669207 19.56 216
2.61870588244787 19.56 217
-2.337164705773461 19.56 218
-7.29303529400665 19.56 219
-12.2489058822572 19.56 220
-17.20477647050497 19.56 221
-22.16064705875461 19.56 222
-27.11651764700558 19.56 223
-32.07238823525664 19.56 224
-37.02825882350427 19.56 225
-41.98412941174797 19.56 226
-42.24600000000639 0 227
-37.55200000001639 0 228
-32.85800000002944 0 229
-28.16400000004235 0 230
-23.47000000005345 0 231
-18.77600000004345 0 232
-14.08200000003274 0 233
-9.38800000002135 0 234
-4.69400000001108 0 235
8.237743939825043 0 236
13.08308661650398 0 237
17.92842929318501 0 238
22.77377196987941 0 239
27.6191146465872 0 240
32.46445732329359 0 241
-5.828888067877621 14.35348918005572 242
3.77213160950688 14.70239002978674 243
1.452455445868134 1.447739099250497 244
-32.84029545624896 4.771741495695819 245
-18.776000000054 4.693999999999452 246
17.92842929318397 4.845342676679983 247
-4.69400000001108 4.69400000001027 248
-36.97994679960289 14.59883991324143 249
-20.76167929063536 14.51697638448741 250
12.76028299356604 14.8283879115098 251
13.08646929340546 5.838102694790792 252
17.4863176471091 14.60412941178005 253
-42.09627393943909 9.694146797962427 254
-9.388000000022256 4.694000000010487 255
-37.55200000001791 4.693999999988474 256
-15.90368585619445 14.56525731308456 257
27.44789584416256 14.63260037882003 258
27.61911464657981 4.845342676700399 259
32.41980000000066 9.77999999998813 260
-30.49793338600023 14.53801972100028 261
-42.01728959316193 14.63728959316194 262
-23.46010579612063 4.699714252816541 263
32.39762783169367 14.65817450474562 264
32.44223252213509 4.867567477864904 265
-42.15013822053317 4.789861779466828 266
8.375338818838854 3.902884376536214 267
-4.610529293168286 8.991769776910953 268
8.336460970495461 15.05771792590622 269
-0.997564312044668 15.44661681729578 270
-23.69816375719748 9.476865731939025 271
-32.8924841055162 9.748080096013624 272
-14.07701478717339 5.299081287482898 273
13.12084196288961 10.51021418395719 274
-11.04101712741956 14.40916793039132 275
-25.66059273301752 14.53410037754751 276
22.45623034619818 14.61817152264292 277
22.7874235387389 4.858994245554928 278
27.54454173422152 9.746446649678077 279
-28.13278308654451 4.725216913484932 280
-37.25081690219682 9.493183097793212 281
-0.6804959639360512 4.136376995491033 282
0.9363154421990457 1.787052606721313 283
0.252086127664195 1.629286395179112 284
6.760610979150572 11.43248763533129 285
-1.153119616609558 8.195574136765968 286
-0.07826744769037003 11.29225012171577 287
-9.785680235350465 9.390359012345108 288
4.040446328234447 2.729532898962681 289
2.052535587031459 1.060788770863869 290
2.489422184492221 0.7821849132595206 291
2.718854007962907 0.6229576984362442 292
3.08756724666112 0.3936787379594557 293
-18.68580707920285 9.329023992654216 294
17.39814563920694 9.572650206796293 295
22.60291239372801 9.71019874445523 296
-28.32027955562804 9.513451858286313 297
9.466189401078253 8.547692583781682 298
1.812346939377669 1.213743956049021 299
1.855569476472944 8.468998951381199 300
-14.08096151902847 9.929222543710539 301
3.535008541637814 10.68465866043848 302
10.08887726143599 12.07530004809723 303
5.364998090749043 7.527166563977381 304
-2.942538931513644 12.55970954946858 305
2.991000950221466 5.563884208486238 306
1.058423434446989 6.489584799161672 307
4.841510233217306 4.14141240207856 308
2.510625931225707 3.641732890102113 309
-0.7746931795190251 5.803544547886275 310
1.188750596797604 1.616589078747218 311
1.128027297613913 4.426286278823919 312
-2.758989411460207 6.600076162679355 313
0.9533626889444673 3.289594033237871 314
1.226415311257535 1.603218816295726 315
1.268588184166285 1.56686502055092 316
-2.196860308794248 3.059554383652573 317
-2.221066814107386 4.949866322160571 318
1.204424406915882 1.659631853944518 319
1.668377088200479 3.034271833814115 320
1.344971868576653 1.513302177828054 321
-0.4666828753470355 0.9528770286466418 322
0.1655989745505952 1.331507487862708 323
0.09380568184108062 1.078218766112915 324
0.04346389298156839 0.8347802110835463 325
-0.003439024925702826 0.6016198092320102 326
1.056431106357416 1.707999339180136 327
1.316370310505421 2.436734382180869 328
0.2027472850546436 2.772935081463116 329
1.317510941288727 1.54297699604268 330
1.139054535412877 1.650724374010348 331
1.382979987557289 1.500251965266339 332
1.087985574594186 1.679652199107362 333
0.6102437666870157 1.984474444995357 334
0.4621345937535033 1.96248365066545 335
0.7283753882775834 1.911311523731979 336
1.124613653735319 1.714814882113544 337
1.009857577705648 1.729810052044955 338
1.374998815106619 1.548221064720654 339
1.416588705700408 1.479046898786557 340
1.462225019379334 1.492071805355234 341
1.335265141386773 1.598006720307705 342
1.428167264175042 1.529391101950836 343
1.500582216998694 1.538141804717023 344
1.661764633945233 1.310296692756217 345
1.554628848384864 1.388635459125241 346
1.270720383970948 1.641027942765406 347
1.610966138283741 1.343348844803556 348
1.501627650685449 1.415527421478678 349
1.427550333220827 1.596209796199138 350
1.511204043607447 1.476075180418082 351
1.564137462680454 1.669238195270943 352
1.711384700573975 1.273035368671084 353
1.235534651048698 1.727908986335803 354
1.352222190567231 1.692739501567434 355
1.559387065225661 1.443821700831003 356
1.697969715337764 1.303991056421382 357
1.649830304149207 1.33912151433468 358
1.599844320534891 1.375458577219415 359
1.171896098711351 1.800456916889383 360
1.742472964379671 1.309686554549035 361
1.648049765546447 1.376346163798079 362
1.620156792531677 1.427678817653475 363
1.758053008395959 1.249359918165563 364
1.707746752547621 1.422267230149771 365
1.304676406468459 1.812830818666708 366
1.805968751152684 1.298651330938275 367
1.698237812807027 1.348899054064837 368
1.590946863487411 1.519149250876059 369
1.047254812684244 1.76425317443344 370
1.909054198949727 1.149732789905018 371
1.855463910109854 1.259175616440391 372
1.222250190485373 1.91994502938614 373
1.691248351838532 1.589574049020748 374
1.092629786802187 1.86577787609395 375
1.779830553743245 1.380584166444696 376
1.003855308637024 1.824531695606553 377
1.686328889183761 1.494084577555999 378
1.019350766826811 1.900468510515907 379
0.8279822855559335 1.848136317045396 380
1.967686373370884 1.112749646368064 381
1.399983393287472 1.951017040048517 382
0.9842139381100281 1.762390443977706 383
1.86706384704954 1.185991960051982 384
1.94752038808154 1.147751294533645 385
1.813321158188624 1.505585818354555 386
1.87428882584821 1.351771514525201 387
2.250359944558348 0.9258817024759464 388
1.801507385652408 1.759812403046183 389
1.940479832731878 1.201223664418471 390
1.091171543468318 1.98501192973228 391
2.015165675031807 1.101566431582769 392
1.899817329480163 1.23154182865395 393
0.9490656545292577 1.860220672109489 394
0.7703791987856068 1.892196511428005 395
0.8599765709802005 1.832123989661976 396
1.447207561815137 1.686134873087414 397
1.261136659428959 2.100969452935148 398
0.8069954943668419 1.879491381878781 399
1.444600856059778 1.787057373609864 400
2.175166572074589 0.9755122446210391 401
2.327511045102671 0.8765788672366446 402
0.9570105020947676 2.399124136822545 403
1.530061800641796 2.164131841015642 404
2.215929320497633 0.9553757146463374 405
2.29155315355522 0.9138013118875269 406
1.981614002952606 1.629157979571094 407
0.8716649724794827 1.890889259862958 408
1.992664232468417 1.161818500232406 409
1.935129612170572 1.281296979174567 410
2.059159729764523 1.10084980908883 411
0.902539467529945 1.818947002668797 412
1.599378121539913 1.910383813018167 413
2.384447251930456 0.8382016742858065 414
1.006982718185377 2.148976495247442 415
2.205215146072212 1.00569274925427 416
2.097172954012203 1.028775779405169 417
0.8085432999676826 1.923018785031972 418
2.147060440682921 1.004079583485815 419
2.03015066984992 1.248824882638371 420
2.269734267864868 0.9756469236754366 421
1.855977830917573 2.131046025117855 422
1.040799735142521 2.752201672115564 423
0.8325423942894723 2.006506383842281 424
2.356251872653128 0.9122711148820059 425
2.421154452403394 0.8277801243129707 426
1.999377303836748 1.401175039842019 427
2.364593942828552 0.8701600288820202 428
1.750223669844052 2.457465243315639 429
2.057074328951592 1.151908747906951 430
2.192980415666352 1.587519121470593 431
2.251949494831476 1.067528470708719 432
2.131278787795679 1.20776900418697 433
0.710472149995544 2.156621982411091 434
2.114026878799204 1.090623859712359 435
2.302708510873558 2.404842149269425 436
2.454059506515817 0.8027678271376946 437
2.419493857438346 0.8877075447625631 438
2.171450780481788 1.056013558388274 439
2.103516090285832 1.88808337463173 440
0.7609575842895665 1.947178957102411 441
0.2913003721944838 3.38441431036954 442
0.9617963416297863 1.965345541885059 443
2.33212858292202 0.9603088298005082 444
2.167620782409358 1.353445836130551 445
2.486144143328569 1.816092584478179 446
0.7104275966449755 2.501086152157759 447
-0.4954608383395496 2.798805653445761 448
3.354031106351244 2.637264851290013 449
2.402230654071967 0.9650701067227674 450
2.489423248682431 0.8526109370120686 451
2.198485339049465 1.125508332738089 452
2.447879308624604 1.426056644757676 453
0.7225597502189358 2.007002443189454 454
2.340872966464915 1.034754691834804 455
2.614106546649133 0.6909588827496129 456
2.541901651140716 0.8116621751706353 457
2.806916785023655 1.546267303868271 458
0.4798444480450904 2.30043494202798 459
2.456628507217941 1.072339768053923 460
0.7033454741981187 1.943038095390778 461
2.311874089952938 1.186449089350715 462
2.836136685181872 2.033446151755393 463
0.6392502244650167 2.852399494480227 464
2.560806480638539 0.7266778846282003 465
0.03622632944404065 1.560511237943627 466
0.6651177769510543 1.969846924041524 467
3.619610634093588 3.783848018928968 468
3.069353372213217 1.353681406907375 469
3.28685579994981 0.2537716979246993 470
0.3354894022806192 1.820390047423039 471
0.2214462458412033 1.540484601332603 472
0.1909906329547998 1.460473316206039 473
0.3586049882984117 1.877481158113047 474
2.533745574315607 0.7585623476345932 475
2.656836749761479 1.279722463835255 476
2.500370065022548 0.9584246159780658 477
0.5181779591491342 2.030591741927001 478
2.653448293398872 0.677535330197943 479
3.7503269342633 1.752667384201982 480
0.1761967344514381 1.39673433944905 481
0.6603497985748489 2.035870713963312 482
2.597050302698716 0.7217266003288092 483
2.49970145492942 1.207079910220136 484
0.4351885201269148 2.545734685089149 485
2.926236324076176 0.4921423423281749 486
2.600950287243724 0.8878122465780498 487
0.2704824582444162 1.850509851023996 488
0.5933555490216949 2.061407775179133 489
2.64204165291392 0.7304637844801373 490
2.690319563888196 0.6526457045583934 491
0.5639633944230231 2.003176809907518 492
0.1122540491049804 1.381420287176665 493
4.6367527332468 1.33247183831388 494
0.5328571026044612 1.985710119605861 495
0.4897477457276557 1.990327907617694 496
3.230882880332332 1.762763869871075 497
2.625288619090137 1.070831585103112 498
0.1689403894694402 2.322579436985323 499
0.1076514105085051 1.311792330627975 500
2.842827569616905 0.5405640624731252 501
2.758462971807675 0.9411849088613844 502
2.746412026965958 0.6584010837904516 503
0.428097172890996 2.022613048831641 504
0.2964663161414882 1.945548872644263 505
0.1084658616945317 1.494270711477966 506
2.695238493992998 0.8028310725521771 507
2.700095882008718 0.708436016494161 508
-0.122768415177595 2.486600613312955 509
0.2130529797469815 2.068833322855164 510
0.2846677620014726 1.716397300932175 511
0.5010467902269741 2.120314790420161 512
2.595966960969566 0.7771404313689064 513
0.1138038272560032 1.162631103809636 514
-0.007214088087833855 1.890324577653411 515
2.929287246114006 0.9058879845388785 516
2.773115260892363 0.7287391233858644 517
2.767460438048654 0.5942622382785847 518
0.3023237932628613 1.78187857798345 519
0.1227292853815092 1.221184300004418 520
0.1978587438219946 1.769357710685866 521
0.3529912418066943 2.156272605104397 522
0.4039610306799877 1.932782337145311 523
0.1609150744229815 1.574929890600305 524
2.892377320803718 1.154126315127716 525
0.1321515056611229 1.908402739294312 526
0.07710651732257442 1.244034769304153 527
2.808094596805705 0.6462447260763926 528
2.812035108685494 0.5763507640643706 529
0.05655860128072654 1.134278794143863 530
0.1367865817058154 1.273226361852978 531
0.1863508074709369 1.650096507068217 532
3.091137043530945 1.053397117964895 533
3.325452831375435 1.25185242770492 534
3.072946929471809 0.7629019339883798 535
-0.02203439408437288 1.243830738122297 536
2.8845495828068 0.7263444011093301 537
2.871666864331675 0.5977254870299065 538
2.974694854884659 0.6292228563320899 539
2.931837115748571 0.5556060508191717 540
3.257404561207486 0.8919326395221024 541
2.80715148054766 0.8255096827904405 542
3.101931612681224 0.6032284359391503 543
2.885462153624156 0.5276783895685401 544
2.977544271973509 0.4570559606877984 545
3.001125381826189 0.5312611788371475 546
3.029247940926816 0.4251383231579883 547
3.243873804953911 0.6948395701902285 548
3.55361219670533 0.6966721477620889 549
3.228950188949594 0.5192237771366337 550
3.08751411476705 0.4850879140401891 551
3.17798848019756 0.3220697155408912 552
3.331113264640913 0.4449366077434325 553
3.139918504951018 0.4484491010701671 554
3.023857927373391 0.4746358441807808 555
3.140763240541763 0.3548351855881686 556
3.222945778360756 0.3132754690525789 557
3.155642469426306 0.3958059751443897 558
3.259819353437494 0.2864052877231168 559
3.217995543471011 0.3847704652034241 560
3.320846673983487 0.3029348194027793 561
3.268441119587043 0.3435724595181114 562
3.343596958854857 0.2133920160019666 563
3.326384289686914 0.2458397177714806 564
3.381763325266316 0.2452403348419303 565
3.396833865149011 0.4224459774375577 566
NMARK= 3
MARKER_TAG= body
MARKER_ELEMS= 200
3 4 5 
3 5 6 
3 6 7 
3 7 8 
3 8 9 
3 9 10 
3 10 11 
3 11 12 
3 12 13 
3 13 14 
3 14 15 
3 15 16 
3 16 17 
3 17 18 
3 18 19 
3 19 20 
3 20 21 
3 21 22 
3 22 23 
3 23 24 
3 24 25 
3 25 26 
3 26 27 
3 27 28 
3 28 29 
3 29 30 
3 30 31 
3 31 32 
3 32 33 
3 33 34 
3 34 35 
3 35 36 
3 36 37 
3 37 38 
3 38 39 
3 39 40 
3 40 41 
3 41 42 
3 42 43 
3 43 44 
3 44 45 
3 45 46 
3 46 47 
3 47 48 
3 48 49 
3 49 50 
3 50 51 
3 51 52 
3 52 53 
3 53 54 
3 54 55 
3 55 56 
3 56 57 
3 57 58 
3 58 59 
3 59 60 
3 60 61 
3 61 62 
3 62 63 
3 63 64 
3 64 65 
3 65 66 
3 66 67 
3 67 68 
3 68 69 
3 69 70 
3 70 71 
3 71 72 
3 72 73 
3 73 74 
3 74 75 
3 75 76 
3 76 77 
3 77 78 
3 78 79 
3 79 80 
3 80 81 
3 81 82 
3 82 83 
3 83 84 
3 84 85 
3 85 86 
3 86 87 
3 87 88 
3 88 89 
3 89 90 
3 90 91 
3 91 92 
3 92 93 
3 93 94 
3 94 95 
3 95 96 
3 96 97 
3 97 98 
3 98 99 
3 99 100 
3 100 101 
3 101 102 
3 102 103 
3 103 104 
3 104 105 
3 105 106 
3 106 107 
3 107 108 
3 108 109 
3 109 110 
3 110 111 
3 111 112 
3 112 113 
3 113 114 
3 114 115 
3 115 116 
3 116 117 
3 117 118 
3 118 119 
3 119 120 
3 120 121 
3 121 122 
3 122 123 
3 123 124 
3 124 125 
3 125 126 
3 126 127 
3 127 128 
3 128 129 
3 129 130 
3 130 131 
3 131 132 
3 132 133 
3 133 134 
3 134 135 
3 135 136 
3 136 137 
3 137 138 
3 138 139 
3 139 140 
3 140 141 
3 141 142 
3 142 143 
3 143 144 
3 144 145 
3 145 146 
3 146 147 
3 147 148 
3 148 149 
3 149 150 
3 150 151 
3 151 152 
3 152 153 
3 153 154 
3 154 155 
3 155 156 
3 156 157 
3 157 158 
3 158 159 
3 159 160 
3 160 161 
3 161 162 
3 162 163 
3 163 164 
3 164 165 
3 165 166 
3 166 167 
3 167 168 
3 168 169 
3 169 170 
3 170 171 
3 171 172 
3 172 173 
3 173 174 
3 174 175 
3 175 176 
3 176 177 
3 177 178 
3 178 179 
3 179 180 
3 180 181 
3 181 182 
3 182 183 
3 183 184 
3 184 185 
3 185 186 
3 186 187 
3 187 188 
3 188 189 
3 189 190 
3 190 191 
3 191 192 
3 192 193 
3 193 194 
3 194 195 
3 195 196 
3 196 197 
3 197 198 
3 198 199 
3 199 200 
3 200 201 
3 201 202 
3 202 203 
3 203 204 
MARKER_TAG= farfield
MARKER_ELEMS= 25
3 3 205 
3 205 206 
3 206 207 
3 207 0 
3 1 208 
3 208 209 
3 209 210 
3 210 2 
3 2 211 
3 211 212 
3 212 213 
3 213 214 
3 214 215 
3 215 216 
3 216 217 
3 217 218 
3 218 219 
3 219 220 
3 220 221 
3 221 222 
3 222 223 
3 223 224 
3 224 225 
3 225 226 
3 226 3 
MARKER_TAG= sym
MARKER_ELEMS= 17
3 0 227 
3 227 228 
3 228 229 
3 229 230 
3 230 231 
3 231 232 
3 232 233 
3 233 234 
3 234 235 
3 235 4 
3 204 236 
3 236 237 
3 237 238 
3 238 239 
3 239 240 
3 240 241 
3 241 1 
