ISO-10303-21;
HEADER;
/* Generated by software containing ST-Developer
 * from STEP Tools, Inc. (www.steptools.com) 
 */

FILE_DESCRIPTION(
/* description */ (''),
/* implementation_level */ '2;1');

FILE_NAME(
/* name */ 'apollo_3d.step',
/* time_stamp */ '2026-09-04T16:57:36-04:00',
/* author */ (''),
/* organization */ (''),
/* preprocessor_version */ 'ST-DEVELOPER v20.1',
/* originating_system */ 'Autodesk Translation Framework v15.8.0.0',
/* authorisation */ '');

FILE_SCHEMA (('AUTOMOTIVE_DESIGN { 1 0 10303 214 3 1 1 }'));
ENDSEC;

DATA;
#10=MECHANICAL_DESIGN_GEOMETRIC_PRESENTATION_REPRESENTATION('',(#13),#165);
#11=SHAPE_REPRESENTATION_RELATIONSHIP('SRR','None',#171,#12);
#12=ADVANCED_BREP_SHAPE_REPRESENTATION('',(#14),#164);
#13=STYLED_ITEM('',(#180),#14);
#14=MANIFOLD_SOLID_BREP('Body1',#70);
#15=TOROIDAL_SURFACE('',#92,1.76,0.196);
#16=SPHERICAL_SURFACE('',#90,4.694);
#17=(
BOUNDED_SURFACE()
B_SPLINE_SURFACE(2,2,((#128,#129,#130,#131,#132,#133,#134,#135,#136),(#137,
#138,#139,#140,#141,#142,#143,#144,#145),(#146,#147,#148,#149,#150,#151,
#152,#153,#154)),.UNSPECIFIED.,.F.,.T.,.F.)
B_SPLINE_SURFACE_WITH_KNOTS((3,3),(3,2,2,2,3),(0.57595865315813,1.68101252107737),
(-3.14159265358979,-1.5707963267949,0.,1.5707963267949,3.14159265358979),
 .UNSPECIFIED.)
GEOMETRIC_REPRESENTATION_ITEM()
RATIONAL_B_SPLINE_SURFACE(((1.,0.707106781186548,1.,0.707106781186548,1.,
0.707106781186548,1.,0.707106781186548,1.),(0.851201005504526,0.601890003145058,
0.851201005504526,0.601890003145058,0.851201005504526,0.601890003145058,
0.851201005504526,0.601890003145058,0.851201005504526),(1.,0.707106781186548,
1.,0.707106781186548,1.,0.707106781186548,1.,0.707106781186548,1.)))
REPRESENTATION_ITEM('')
SURFACE()
);
#18=FACE_OUTER_BOUND('',#22,.T.);
#19=FACE_OUTER_BOUND('',#23,.T.);
#20=FACE_OUTER_BOUND('',#24,.T.);
#21=FACE_OUTER_BOUND('',#25,.T.);
#22=EDGE_LOOP('',(#49,#50,#51,#52,#53,#54));
#23=EDGE_LOOP('',(#55,#56,#57,#58));
#24=EDGE_LOOP('',(#59));
#25=EDGE_LOOP('',(#60,#61,#62,#63,#64));
#26=LINE('',#123,#27);
#27=VECTOR('',#100,1.07176037922727);
#28=CIRCLE('',#85,0.219141327137228);
#29=CIRCLE('',#86,1.9243794313173);
#30=CIRCLE('',#87,1.9243794313173);
#31=CIRCLE('',#88,0.219141327137228);
#32=CIRCLE('',#89,0.231);
#33=CIRCLE('',#91,1.83669186305024);
#34=CIRCLE('',#93,0.196);
#35=VERTEX_POINT('',#119);
#36=VERTEX_POINT('',#120);
#37=VERTEX_POINT('',#122);
#38=VERTEX_POINT('',#124);
#39=VERTEX_POINT('',#155);
#40=VERTEX_POINT('',#158);
#41=EDGE_CURVE('',#35,#36,#28,.T.);
#42=EDGE_CURVE('',#35,#37,#26,.T.);
#43=EDGE_CURVE('',#37,#38,#29,.T.);
#44=EDGE_CURVE('',#38,#37,#30,.T.);
#45=EDGE_CURVE('',#36,#35,#31,.T.);
#46=EDGE_CURVE('',#39,#36,#32,.T.);
#47=EDGE_CURVE('',#40,#40,#33,.T.);
#48=EDGE_CURVE('',#38,#40,#34,.T.);
#49=ORIENTED_EDGE('',*,*,#41,.F.);
#50=ORIENTED_EDGE('',*,*,#42,.T.);
#51=ORIENTED_EDGE('',*,*,#43,.T.);
#52=ORIENTED_EDGE('',*,*,#44,.T.);
#53=ORIENTED_EDGE('',*,*,#42,.F.);
#54=ORIENTED_EDGE('',*,*,#45,.F.);
#55=ORIENTED_EDGE('',*,*,#46,.T.);
#56=ORIENTED_EDGE('',*,*,#45,.T.);
#57=ORIENTED_EDGE('',*,*,#41,.T.);
#58=ORIENTED_EDGE('',*,*,#46,.F.);
#59=ORIENTED_EDGE('',*,*,#47,.F.);
#60=ORIENTED_EDGE('',*,*,#43,.F.);
#61=ORIENTED_EDGE('',*,*,#44,.F.);
#62=ORIENTED_EDGE('',*,*,#48,.T.);
#63=ORIENTED_EDGE('',*,*,#47,.T.);
#64=ORIENTED_EDGE('',*,*,#48,.F.);
#65=CONICAL_SURFACE('',#84,1.07176037922727,0.575958653158129);
#66=ADVANCED_FACE('',(#18),#65,.T.);
#67=ADVANCED_FACE('',(#19),#17,.F.);
#68=ADVANCED_FACE('',(#20),#16,.T.);
#69=ADVANCED_FACE('',(#21),#15,.T.);
#70=CLOSED_SHELL('',(#66,#67,#68,#69));
#71=DERIVED_UNIT_ELEMENT(#73,1.);
#72=DERIVED_UNIT_ELEMENT(#166,-3.);
#73=(
MASS_UNIT()
NAMED_UNIT(*)
SI_UNIT(.KILO.,.GRAM.)
);
#74=DERIVED_UNIT((#71,#72));
#75=MEASURE_REPRESENTATION_ITEM('density measure',
POSITIVE_RATIO_MEASURE(7850.),#74);
#76=PROPERTY_DEFINITION_REPRESENTATION(#81,#78);
#77=PROPERTY_DEFINITION_REPRESENTATION(#82,#79);
#78=REPRESENTATION('material name',(#80),#164);
#79=REPRESENTATION('density',(#75),#164);
#80=DESCRIPTIVE_REPRESENTATION_ITEM('Steel','Steel');
#81=PROPERTY_DEFINITION('material property','material name',#173);
#82=PROPERTY_DEFINITION('material property','density of part',#173);
#83=AXIS2_PLACEMENT_3D('',#117,#94,#95);
#84=AXIS2_PLACEMENT_3D('',#118,#96,#97);
#85=AXIS2_PLACEMENT_3D('',#121,#98,#99);
#86=AXIS2_PLACEMENT_3D('',#125,#101,#102);
#87=AXIS2_PLACEMENT_3D('',#126,#103,#104);
#88=AXIS2_PLACEMENT_3D('',#127,#105,#106);
#89=AXIS2_PLACEMENT_3D('',#156,#107,#108);
#90=AXIS2_PLACEMENT_3D('',#157,#109,#110);
#91=AXIS2_PLACEMENT_3D('',#159,#111,#112);
#92=AXIS2_PLACEMENT_3D('',#160,#113,#114);
#93=AXIS2_PLACEMENT_3D('',#161,#115,#116);
#94=DIRECTION('axis',(0.,0.,1.));
#95=DIRECTION('refdir',(1.,0.,0.));
#96=DIRECTION('center_axis',(-1.,0.,0.));
#97=DIRECTION('ref_axis',(0.,1.,0.));
#98=DIRECTION('center_axis',(1.,0.,0.));
#99=DIRECTION('ref_axis',(0.,0.,-1.));
#100=DIRECTION('',(-0.838670567945424,-0.544639035015027,-6.66990450921856E-17));
#101=DIRECTION('center_axis',(1.,0.,0.));
#102=DIRECTION('ref_axis',(0.,0.,-1.));
#103=DIRECTION('center_axis',(1.,0.,0.));
#104=DIRECTION('ref_axis',(0.,0.,-1.));
#105=DIRECTION('center_axis',(1.,0.,0.));
#106=DIRECTION('ref_axis',(0.,0.,-1.));
#107=DIRECTION('center_axis',(0.,-1.,-1.22464679914735E-16));
#108=DIRECTION('ref_axis',(0.,-1.22464679914735E-16,1.));
#109=DIRECTION('center_axis',(0.,-3.58656723345437E-20,1.));
#110=DIRECTION('ref_axis',(-0.999999828459654,-0.000585730879458382,0.));
#111=DIRECTION('center_axis',(1.,0.,0.));
#112=DIRECTION('ref_axis',(0.,0.,-1.));
#113=DIRECTION('center_axis',(1.,0.,0.));
#114=DIRECTION('ref_axis',(0.,0.,-1.));
#115=DIRECTION('center_axis',(0.,-1.,-1.22464679914735E-16));
#116=DIRECTION('ref_axis',(0.,-1.22464679914735E-16,1.));
#117=CARTESIAN_POINT('',(0.,0.,0.));
#118=CARTESIAN_POINT('Origin',(1.97429504045689,0.,0.));
#119=CARTESIAN_POINT('',(3.28721324625114,-0.219141327137227,-2.68370724839509E-17));
#120=CARTESIAN_POINT('',(3.28721324625114,-2.68370724839509E-17,0.219141327137228));
#121=CARTESIAN_POINT('Origin',(3.28721324625114,0.,0.));
#122=CARTESIAN_POINT('',(0.661376834662635,-1.9243794313173,-2.35668511090774E-16));
#123=CARTESIAN_POINT('',(1.97429504045689,-1.07176037922727,-1.31252791787362E-16));
#124=CARTESIAN_POINT('',(0.661376834662635,-2.35668511090774E-16,1.9243794313173));
#125=CARTESIAN_POINT('Origin',(0.661376834662635,0.,0.));
#126=CARTESIAN_POINT('Origin',(0.661376834662635,0.,0.));
#127=CARTESIAN_POINT('Origin',(3.28721324625114,0.,0.));
#128=CARTESIAN_POINT('Ctrl Pts',(3.28721324625114,0.,0.219141327137228));
#129=CARTESIAN_POINT('Ctrl Pts',(3.28721324625114,-0.219141327137228,0.219141327137228));
#130=CARTESIAN_POINT('Ctrl Pts',(3.28721324625114,-0.219141327137228,0.));
#131=CARTESIAN_POINT('Ctrl Pts',(3.28721324625114,-0.219141327137228,-0.219141327137228));
#132=CARTESIAN_POINT('Ctrl Pts',(3.28721324625114,0.,-0.219141327137228));
#133=CARTESIAN_POINT('Ctrl Pts',(3.28721324625114,0.219141327137228,-0.219141327137228));
#134=CARTESIAN_POINT('Ctrl Pts',(3.28721324625114,0.219141327137228,0.));
#135=CARTESIAN_POINT('Ctrl Pts',(3.28721324625114,0.219141327137228,0.219141327137228));
#136=CARTESIAN_POINT('Ctrl Pts',(3.28721324625114,0.,0.219141327137228));
#137=CARTESIAN_POINT('Ctrl Pts',(3.40666651577199,0.,0.141567466878118));
#138=CARTESIAN_POINT('Ctrl Pts',(3.40666651577199,-0.141567466878118,0.141567466878118));
#139=CARTESIAN_POINT('Ctrl Pts',(3.40666651577199,-0.141567466878118,0.));
#140=CARTESIAN_POINT('Ctrl Pts',(3.40666651577199,-0.141567466878118,-0.141567466878118));
#141=CARTESIAN_POINT('Ctrl Pts',(3.40666651577199,0.,-0.141567466878118));
#142=CARTESIAN_POINT('Ctrl Pts',(3.40666651577199,0.141567466878118,-0.141567466878118));
#143=CARTESIAN_POINT('Ctrl Pts',(3.40666651577199,0.141567466878118,0.));
#144=CARTESIAN_POINT('Ctrl Pts',(3.40666651577199,0.141567466878118,0.141567466878118));
#145=CARTESIAN_POINT('Ctrl Pts',(3.40666651577199,0.,0.141567466878118));
#146=CARTESIAN_POINT('Ctrl Pts',(3.391,0.,1.33226762955019E-17));
#147=CARTESIAN_POINT('Ctrl Pts',(3.391,-1.33226762955019E-17,1.33226762955019E-17));
#148=CARTESIAN_POINT('Ctrl Pts',(3.391,-1.33226762955019E-17,0.));
#149=CARTESIAN_POINT('Ctrl Pts',(3.391,-1.33226762955019E-17,-1.33226762955019E-17));
#150=CARTESIAN_POINT('Ctrl Pts',(3.391,0.,-1.33226762955019E-17));
#151=CARTESIAN_POINT('Ctrl Pts',(3.391,1.33226762955019E-17,-1.33226762955019E-17));
#152=CARTESIAN_POINT('Ctrl Pts',(3.391,1.33226762955019E-17,0.));
#153=CARTESIAN_POINT('Ctrl Pts',(3.391,1.33226762955019E-17,1.33226762955019E-17));
#154=CARTESIAN_POINT('Ctrl Pts',(3.391,0.,1.33226762955019E-17));
#155=CARTESIAN_POINT('',(3.391,1.77635683940025E-17,0.));
#156=CARTESIAN_POINT('Origin',(3.16140162916266,-3.11163475010405E-18,0.0254084259418347));
#157=CARTESIAN_POINT('Origin',(4.694,-1.00364161426114E-15,0.));
#158=CARTESIAN_POINT('',(0.374254752858101,-2.24929881110447E-16,1.83669186305024));
#159=CARTESIAN_POINT('Origin',(0.374254752858101,0.,0.));
#160=CARTESIAN_POINT('Origin',(0.554627583799689,0.,0.));
#161=CARTESIAN_POINT('Origin',(0.554627583799689,-2.15537836649934E-16,
1.76));
#162=UNCERTAINTY_MEASURE_WITH_UNIT(LENGTH_MEASURE(1.E-5),#166,
'DISTANCE_ACCURACY_VALUE',
'Maximum model space distance between geometric entities at asserted c
onnectivities');
#163=UNCERTAINTY_MEASURE_WITH_UNIT(LENGTH_MEASURE(1.E-5),#166,
'DISTANCE_ACCURACY_VALUE',
'Maximum model space distance between geometric entities at asserted c
onnectivities');
#164=(
GEOMETRIC_REPRESENTATION_CONTEXT(3)
GLOBAL_UNCERTAINTY_ASSIGNED_CONTEXT((#162))
GLOBAL_UNIT_ASSIGNED_CONTEXT((#166,#167,#168))
REPRESENTATION_CONTEXT('','3D')
);
#165=(
GEOMETRIC_REPRESENTATION_CONTEXT(3)
GLOBAL_UNCERTAINTY_ASSIGNED_CONTEXT((#163))
GLOBAL_UNIT_ASSIGNED_CONTEXT((#166,#167,#168))
REPRESENTATION_CONTEXT('','3D')
);
#166=(
LENGTH_UNIT()
NAMED_UNIT(*)
SI_UNIT($,.METRE.)
);
#167=(
NAMED_UNIT(*)
PLANE_ANGLE_UNIT()
SI_UNIT($,.RADIAN.)
);
#168=(
NAMED_UNIT(*)
SI_UNIT($,.STERADIAN.)
SOLID_ANGLE_UNIT()
);
#169=SHAPE_DEFINITION_REPRESENTATION(#170,#171);
#170=PRODUCT_DEFINITION_SHAPE('',$,#173);
#171=SHAPE_REPRESENTATION('',(#83),#164);
#172=PRODUCT_DEFINITION_CONTEXT('part definition',#177,'design');
#173=PRODUCT_DEFINITION('apollo_2d','apollo_2d v5',#174,#172);
#174=PRODUCT_DEFINITION_FORMATION('',$,#179);
#175=PRODUCT_RELATED_PRODUCT_CATEGORY('apollo_2d v5','apollo_2d v5',(#179));
#176=APPLICATION_PROTOCOL_DEFINITION('international standard',
'automotive_design',2009,#177);
#177=APPLICATION_CONTEXT(
'Core Data for Automotive Mechanical Design Process');
#178=PRODUCT_CONTEXT('part definition',#177,'mechanical');
#179=PRODUCT('apollo_2d','apollo_2d v5',$,(#178));
#180=PRESENTATION_STYLE_ASSIGNMENT((#181));
#181=SURFACE_STYLE_USAGE(.BOTH.,#182);
#182=SURFACE_SIDE_STYLE('',(#183));
#183=SURFACE_STYLE_FILL_AREA(#184);
#184=FILL_AREA_STYLE('Steel - Satin',(#185));
#185=FILL_AREA_STYLE_COLOUR('Steel - Satin',#186);
#186=COLOUR_RGB('Steel - Satin',0.627450980392157,0.627450980392157,0.627450980392157);
ENDSEC;
END-ISO-10303-21;
